<svg width="96" height="96" viewBox="0 0 96 96" fill="none" xmlns="http://www.w3.org/2000/svg">
  <defs>
    <linearGradient id="g" x1="22" y1="14" x2="74" y2="82" gradientUnits="userSpaceOnUse">
      <stop stop-color="#2D6AE3"></stop>
      <stop offset="1" stop-color="#6C5CE7"></stop>
    </linearGradient>
    <filter id="s" x="-20%" y="-20%" width="140%" height="140%">
      <feDropShadow dx="0" dy="10" stdDeviation="10" flood-color="#0B1220" flood-opacity="0.18"></feDropShadow>
    </filter>
  </defs>

  <!-- Rounded “app icon” tile -->
  <rect x="12" y="12" width="72" height="72" rx="18" fill="url(#g)" filter="url(#s)"></rect>

  <!-- Paper -->
  <path d="M34 30C34 27.7909 35.7909 26 38 26H56L64 34V66C64 68.2091 62.2091 70 60 70H38C35.7909 70 34 68.2091 34 66V30Z" fill="white" fill-opacity="0.92"></path>
  <path d="M56 26V32.5C56 33.8807 57.1193 35 58.5 35H64" fill="white" fill-opacity="0.72"></path>

  <!-- Redaction bars -->
  <rect x="40" y="44" width="20" height="6" rx="3" fill="#0B1220" fill-opacity="0.55"></rect>
  <rect x="40" y="54" width="16" height="6" rx="3" fill="#0B1220" fill-opacity="0.45"></rect>
</svg>
